<svg width="30" height="36" viewBox="0 0 30 36" fill="none" xmlns="http://www.w3.org/2000/svg">
	<g filter="url(#filter0_d)">
		<path d="M0.923828 32V0.71875H11.1504C14.5449 0.71875 17.0944 1.42057 18.7988 2.82422C20.5176 4.22786 21.377 6.30469 21.377 9.05469C21.377 10.5156 20.9616 11.8118 20.1309 12.9434C19.3001 14.0605 18.1686 14.9271 16.7363 15.543C18.4264 16.0156 19.7585 16.918 20.7324 18.25C21.7207 19.5677 22.2148 21.1432 22.2148 22.9766C22.2148 25.7839 21.3053 27.9896 19.4863 29.5938C17.6673 31.1979 15.0964 32 11.7734 32H0.923828ZM5.04883 17.3691V28.627H11.8594C13.7786 28.627 15.2897 28.1328 16.3926 27.1445C17.5098 26.1419 18.0684 24.7669 18.0684 23.0195C18.0684 19.2526 16.0202 17.3691 11.9238 17.3691H5.04883ZM5.04883 14.0605H11.2793C13.084 14.0605 14.5234 13.6094 15.5977 12.707C16.6862 11.8047 17.2305 10.5801 17.2305 9.0332C17.2305 7.31445 16.7292 6.06836 15.7266 5.29492C14.724 4.50716 13.1986 4.11328 11.1504 4.11328H5.04883V14.0605Z" fill="#62C8E9" />
		<path d="M0.923828 32V0.71875H11.1504C14.5449 0.71875 17.0944 1.42057 18.7988 2.82422C20.5176 4.22786 21.377 6.30469 21.377 9.05469C21.377 10.5156 20.9616 11.8118 20.1309 12.9434C19.3001 14.0605 18.1686 14.9271 16.7363 15.543C18.4264 16.0156 19.7585 16.918 20.7324 18.25C21.7207 19.5677 22.2148 21.1432 22.2148 22.9766C22.2148 25.7839 21.3053 27.9896 19.4863 29.5938C17.6673 31.1979 15.0964 32 11.7734 32H0.923828ZM5.04883 17.3691V28.627H11.8594C13.7786 28.627 15.2897 28.1328 16.3926 27.1445C17.5098 26.1419 18.0684 24.7669 18.0684 23.0195C18.0684 19.2526 16.0202 17.3691 11.9238 17.3691H5.04883ZM5.04883 14.0605H11.2793C13.084 14.0605 14.5234 13.6094 15.5977 12.707C16.6862 11.8047 17.2305 10.5801 17.2305 9.0332C17.2305 7.31445 16.7292 6.06836 15.7266 5.29492C14.724 4.50716 13.1986 4.11328 11.1504 4.11328H5.04883V14.0605Z" fill="url(#paint0_linear)" />
	</g>
	<defs>
		<filter id="filter0_d" x="0.923828" y="0.71875" width="25.291" height="35.2812" filterUnits="userSpaceOnUse" color-interpolation-filters="sRGB">
			<feFlood flood-opacity="0" result="BackgroundImageFix" />
			<feColorMatrix in="SourceAlpha" type="matrix" values="0 0 0 0 0 0 0 0 0 0 0 0 0 0 0 0 0 0 127 0" />
			<feOffset dx="2" dy="2" />
			<feGaussianBlur stdDeviation="1" />
			<feColorMatrix type="matrix" values="0 0 0 0 0 0 0 0 0 0.52 0 0 0 0 1 0 0 0 0.4 0" />
			<feBlend mode="normal" in2="BackgroundImageFix" result="effect1_dropShadow" />
			<feBlend mode="normal" in="SourceGraphic" in2="effect1_dropShadow" result="shape" />
		</filter>
		<linearGradient id="paint0_linear" x1="11" y1="-13" x2="11" y2="47" gradientUnits="userSpaceOnUse">
			<stop stop-color="#00E0FF" />
			<stop offset="0.9999" stop-color="#0038FF" stop-opacity="0.0364583" />
			<stop offset="1" stop-color="#0038FF" stop-opacity="0.0364583" />
		</linearGradient>
	</defs>
</svg>
